<?xml version="1.0" encoding="UTF-8"?><!DOCTYPE svg PUBLIC "-//W3C//DTD SVG 1.1//EN" "http://www.w3.org/Graphics/SVG/1.1/DTD/svg11.dtd"><svg xmlns="http://www.w3.org/2000/svg" xmlns:xlink="http://www.w3.org/1999/xlink" version="1.1" id="Layer_1" x="0px" y="0px" width="42px" height="32px" viewBox="0 0 42 32" xml:space="preserve"><path fill="#828282" d="M33.958 12.982C33.528 6.372 28.931 0 20.5 0c-1.029 0-2.044.1-3.018.297a.5.5 0 0 0 .199.981A14.156 14.156 0 0 1 20.5 1C29.088 1 33 7.739 33 14v1.5a.5.5 0 0 0 1 0V14l-.001-.016C37.062 14.248 41 16.916 41 22.5c0 4.767-3.514 8.5-8 8.5H9c-3.976 0-8-2.92-8-8.5C1 18.406 3.504 14 9 14h1.5a.5.5 0 0 0 0-1H9v-2c0-3.727 2.299-6.042 6-6.042 3.364 0 6 2.654 6 6.042v12.993l-4.16-3.86a.499.499 0 1 0-.68.732l4.516 4.189c.299.298.563.445.827.445.261 0 .52-.145.808-.433l4.529-4.202a.498.498 0 0 0 .026-.706.497.497 0 0 0-.706-.026L22 23.993V11c0-3.949-3.075-7.042-7-7.042-4.252 0-7 2.764-7 7.042v2.051c-5.255.508-8 5.003-8 9.449C0 27.105 3.154 32 9 32h24c5.047 0 9-4.173 9-9.5 0-6.304-4.557-9.278-8.042-9.518z"/><metadata><rdf:RDF xmlns:rdf="http://www.w3.org/1999/02/22-rdf-syntax-ns#" xmlns:rdfs="http://www.w3.org/2000/01/rdf-schema#" xmlns:dc="http://purl.org/dc/elements/1.1/"><rdf:Description about="https://iconscout.com/legal#licenses" dc:title="download" dc:description="download" dc:publisher="Iconscout" dc:date="2017-09-21" dc:format="image/svg+xml" dc:language="en"><dc:creator><rdf:Bag><rdf:li>Kenny Sing</rdf:li></rdf:Bag></dc:creator></rdf:Description></rdf:RDF></metadata></svg>